<?xml version="1.0" encoding="utf-8"?>
<!-- Generator: Adobe Illustrator 17.1.0, SVG Export Plug-In . SVG Version: 6.00 Build 0)  -->
<!DOCTYPE svg PUBLIC "-//W3C//DTD SVG 1.1//EN" "http://www.w3.org/Graphics/SVG/1.1/DTD/svg11.dtd">
<svg version="1.1" id="Layer_1" xmlns="http://www.w3.org/2000/svg" xmlns:xlink="http://www.w3.org/1999/xlink" x="0px" y="0px"
	 viewBox="0 0 233.2 103.1" enable-background="new 0 0 233.2 103.1" xml:space="preserve">
<path fill="#FFFFFF" stroke="#000000" stroke-miterlimit="10" d="M963.2-335.4"/>
<rect x="490.3" y="-382.9" fill="#22B573" width="250" height="250"/>
<path opacity="0.5" fill="#0071BC" d="M750.4-394.9h-15.2c0,0-17.4,2.2-27.3,15c-12.1,15.7-17.2,41.1-17.2,41.1l-4.1,46.2
	c0,0-2.6,11.2-10.6,19.5c-7.1,7.2-21.3,9.4-21.3,9.4l-17.9,0.1c-0.2-51.2-0.4-100.8-0.4-102.2c0-4.4,8.7-11.9,11.8-13.9
	c8.9-5.7,20.1-7.3,20.1-7.3v-7.8h-43.5h-16.3h-46.2v7.8c0,0,12.5,1.6,21.4,7.3c3.1,2,12.6,9.4,12.7,13.9c0,1.4,0,51.1-0.2,102.2
	l-20.9-0.1c0,0-13.9-2.2-21-9.4c-8.1-8.3-10.5-19.5-10.5-19.5l-4-46.4c0,0-5-25.1-17.1-40.8c-9.9-12.8-27.3-15-27.3-15h-15.2
	c0,0-2.3,0-2.3,1.6c0,1.7,2.3,3.9,2.3,3.9s4.8,4.5,8,8.9c2.5,3.6,3.5,7,3.5,7s1.6,3.2,1.9,7.9c0.9,15.1,1.5,47,1.5,47
	s3.1,31.8,17.9,47.6c19.3,20.8,51,26.9,51,26.9l32.4,0.7c-0.2,48-0.3,91.9-0.3,91.9s-0.5,9.1-9.1,14.6c-4.5,2.9-18.9,6.7-18.9,6.7
	l-0.2,9.4h40.6h16.3h40.6l-0.2-9.4c0,0-14.3-3.7-18.9-6.6c-8.6-5.5-9.1-14.7-9.1-14.7s-0.2-43.9-0.3-92l29.3-0.7
	c0,0,32.2-6.1,51.5-26.9c14.8-15.9,17.9-47.7,17.9-47.7s0.5-31.8,1.5-47c0.3-4.7,1.9-7.9,1.9-7.9s1-3.5,3.5-7.1c3.2-4.5,8-9.1,8-9.1
	s2.3-1.8,2.3-3.6C752.7-394.9,750.4-394.9,750.4-394.9z"/>
<rect x="808.3" y="-382.9" fill="#3FA9F5" width="78" height="72"/>
<rect x="914.3" y="-382.9" fill="#3287C4" width="78" height="72"/>
<g>
	<polygon fill="#3FA9F5" points="1146.1,-84.6 1138.3,-77.1 1138.3,-94.9 1156.7,-94.9 1149.9,-88.3 	"/>
	<path fill="#3FA9F5" d="M1143.1-56.8c0,0-1.8-1.3-4.8-2.6v-14c2-0.8,3.5-1.9,5.6-2.4c1.1-0.2,5.1-0.7,6.1,0.3
		c0.3,0.3,11.4,11.5,22.7,23l-4.7,4.6c0,0-3.6,2.6-6.8,2.5c-3.7-0.1-6.8-2.1-6.8-2.1L1143.1-56.8z"/>
	<path fill="#3FA9F5" d="M1159.1-84.3c-1-1-0.7-4.7-0.4-5.8c0.4-1.9,1.3-3.9,2-4.9h14.1c1.3,3,2.5,4.6,2.5,4.6l9.3,11.3
		c0,0,1.9,3.1,1.9,6.8c0,3.2-2.7,6.8-2.7,6.8l-4,4C1170.5-72.8,1159.4-83.9,1159.1-84.3z"/>
	<path fill="#3FA9F5" d="M1197.6-27c0,0,1.9,2.2,1.2,5.3c-0.4,1.7-2.8,5.6-2.8,5.6l0.3,0.2h-58v-25.5c3,1.7,8.5,5.7,13.8,6
		c9,0.4,17.6-5.3,17.6-5.3l7.5-7C1187.9-36.9,1197.6-27,1197.6-27z"/>
	<path fill="#3FA9F5" d="M1218.3-94.9v57.3c-1,0.3-4.3,2.3-5.9,2.7c-3.2,0.7-5.4-1.3-5.4-1.3s-9.8-9.8-20.6-20.6l6.4-6.7
		c0,0,5.9-8.6,5.6-17.5c-0.2-5.5-4.3-11.9-5.9-13.9H1218.3z"/>
	<polygon fill="#3FA9F5" points="1211.1,-26.5 1218.3,-33.4 1218.3,-15.9 1200,-15.9 1207.4,-23 	"/>
	<path fill="#3FA9F5" d="M1135.8-74.3l2.6-2.8v3.8c0,0.4-1,0.8-1,0.8L1135.8-74.3z"/>
	<path fill="#3FA9F5" d="M1130.2-62.2c2.9,0.4,6.2,1.6,8.2,2.8v17.9c0-0.5-0.8-0.8-0.8-0.8s-7.1-7-10.6-10.2c-1.1-1-2.1-1.4-2.1-1.4
		s-1-0.6-2.3-0.8c-1.7-0.3-3.8-0.2-3.8-0.2s-1,0-1.4-0.4c-0.4-0.4,0.2-0.9,0.2-0.9l3.3-3.4C1120.8-59.5,1125.1-62.8,1130.2-62.2z"/>
	<path fill="#3FA9F5" d="M1159.9-97.9l1.7,1.7c0,0-0.4,0.3-0.9,1.3h-4L1159.9-97.9z"/>
	<path fill="#3FA9F5" d="M1191.9-95.7c0,0,0.2,0.8,0.7,0.8h-17.8c-1.2-2-2.4-5.5-2.7-8.4c-0.6-5.1,2.8-9.4,2.8-9.4l3.4-3.4
		c0,0,0.5-0.5,0.9-0.2c0.4,0.4,0.3,1.3,0.3,1.3s-0.1,2.1,0.2,3.8c0.2,1.4,0.8,2.4,0.8,2.4s0.4,1,1.3,2.2
		C1185-102.9,1191.9-95.7,1191.9-95.7z"/>
	<polygon fill="#3FA9F5" points="1196.3,-15.9 1200,-15.9 1198.1,-14.1 	"/>
	<path fill="#3FA9F5" d="M1220.3-35.5l-1.9,2.1v-4.2c0,0-0.1,0-0.1,0L1220.3-35.5z"/>
	<text transform="matrix(1 0 0 1 1227.8333 -66.2304)" fill="#3FA9F5" font-family="'CenturyGothic-Bold'" font-size="18.9719">PSICÓLOGOS</text>
	
		<text transform="matrix(1 0 0 1 1225.9362 -29.3523)" fill="#3287C4" font-family="'Lato-Bold'" font-size="37.9438" letter-spacing="7">PERÚ</text>
</g>
<polygon fill="#3FA9F5" points="1024.6,184.7 991,184.7 1030.2,144.9 1070.6,184.6 1040.9,184.7 "/>
<path fill="#3FA9F5" d="M956.1,240.6c0,0-1.4-6.9-4.5-15.8l31-31.5c4.4,0.9,11.6,2.9,17.3,6.5c3.1,2,12.7,9.4,12.7,13.8
	c0,1.4,0.1,51.1,0,102.2l-20.9-0.1c0,0-13.9-2.1-21-9.4c-8.1-8.3-10.5-19.5-10.5-19.5L956.1,240.6z"/>
<path fill="#3FA9F5" d="M1052.6,213.6c0-4.4,8.7-11.9,11.8-13.9c5.1-3.3,11.1-5.3,15.2-6.3l31.8,31.3c-3.1,8.9-4.5,15.9-4.5,15.9
	l-4,46.2c0,0-2.5,11.2-10.6,19.5c-7,7.2-21.2,9.4-21.2,9.4l-17.9,0.1C1052.9,264.7,1052.6,215,1052.6,213.6z"/>
<path fill="#3FA9F5" d="M1012.5,428c0,0-0.4,9.1-9.1,14.6c-4.5,2.9-18.9,6.8-18.9,6.8l0,1.3L854.9,323.1l57-57.9
	c1.4,9.1,5.9,31.2,17.4,43.5c19.3,20.7,51,26.8,51,26.8l32.4,0.7C1012.6,384.2,1012.5,428,1012.5,428z"/>
<path fill="#3FA9F5" d="M1208.4,320.2l-126.9,129c-1.7-0.4-14.5-3.8-18.7-6.5c-8.7-5.5-9.1-14.7-9.1-14.7s-0.2-43.9-0.5-92l29.3-0.7
	c0,0,32.1-6.2,51.4-26.9c11.8-12.7,16.1-35.7,17.4-44.3L1208.4,320.2z"/>
<polygon fill="#3FA9F5" points="1041.3,458.7 1072.3,458.6 1033.1,498.4 992.7,458.7 1025,458.7 "/>
<path fill="#3FA9F5" d="M978.4,184.7l12.6,0l-8.4,8.6c-2.5-0.5-4.1-0.7-4.1-0.7L978.4,184.7z"/>
<path fill="#3FA9F5" d="M938.9,199.8c5.8,7.4,9.9,17,12.7,25l-39.7,40.4c-0.4-2.6-0.5-4.1-0.5-4.1s-0.6-31.8-1.5-47
	c-0.3-4.7-1.9-7.8-1.9-7.8s-1-3.5-3.5-7c-3.2-4.5-8-8.9-8-8.9s-2.3-2.1-2.3-3.8c0-1.6,2.3-1.6,2.3-1.6l15.2,0
	C911.6,184.9,929,187,938.9,199.8z"/>
<path fill="#3FA9F5" d="M1084.4,184.6l0,7.8c0,0-2,0.3-4.9,1l-9-8.8L1084.4,184.6z"/>
<path fill="#3FA9F5" d="M1151.8,260.7c0,0-0.1,1.2-0.4,3.4l-40-39.4c2.8-8.1,6.9-17.7,12.7-25.2c9.9-12.8,27.3-15,27.3-15l15.2,0
	c0,0,2.3,0,2.3,1.6c0,1.7-2.3,3.6-2.3,3.6s-4.8,4.6-8,9.1c-2.5,3.6-3.5,7.1-3.5,7.1s-1.6,3.2-1.9,7.9
	C1152.3,228.9,1151.8,260.7,1151.8,260.7z"/>
<polygon fill="#3FA9F5" points="984.5,450.7 992.7,458.7 984.4,458.7 "/>
<path fill="#3FA9F5" d="M1081.9,458.6l-9.7,0l9.3-9.4c0.1,0,0.2,0,0.2,0L1081.9,458.6z"/>
<text transform="matrix(1 0 0 1 1224.8219 298.3204)" fill="#3FA9F5" font-family="'CenturyGothic-Bold'" font-size="60" letter-spacing="-2">PSICÓLOGOS</text>
<text transform="matrix(1 0 0 1 1218.822 414.9491)" fill="#3287C4" font-family="'Lato-Bold'" font-size="120" letter-spacing="24">PERÚ</text>
<rect x="1014.3" y="-382.9" fill="#FF931E" width="78" height="72"/>
<polygon fill="#3FA9F5" points="1748.3,-124.6 1724.3,-101 1724.3,-156.9 1781,-156.9 1759.9,-136.1 "/>
<path fill="#3FA9F5" d="M1738.6-36.7c0,0-5.9-4-14.3-8.1V-89c3.8-2.4,10.3-6.1,16.9-7.5c3.6-0.8,15.6-2.2,18.8,1
	c1,1,35.9,36.3,71.7,72.9l-15,14.6c0,0-11.4,8.2-21.5,8c-11.6-0.2-21.2-6.5-21.2-6.5L1738.6-36.7z"/>
<path fill="#3FA9F5" d="M1788.5-123.6c-3.1-3.2-2.2-14.5-1.3-18.1c1.3-6,4.2-11.5,6.4-15.1h44.6c4.1,8.5,8,14.5,8,14.5l29.6,35.8
	c0,0,6,9.8,6.1,21.3c0.1,10.1-8.6,21.6-8.6,21.6l-12.7,12.6C1824.5-87.4,1789.5-122.6,1788.5-123.6z"/>
<path fill="#3FA9F5" d="M1910.3,57.3c0,0,6.1,6.8,3.8,16.8c-1.2,5.2-8.7,18.1-8.7,18.1l0.9,1h-181.9V11.8c7.4,5.5,26,18.1,42.9,18.8
	c28.3,1.2,55.2-16.7,55.2-16.7L1846-8.3C1879.6,26,1910.3,57.3,1910.3,57.3z"/>
<path fill="#3FA9F5" d="M1974.3-156.9V24c-1.5,0.9-13,7.4-17.9,8.5c-10,2.2-16.8-4-16.8-4s-31-31.2-64.8-65.2l20.4-21.1
	c0,0,18.6-26.9,17.8-55.3c-0.5-17.4-13.6-36.8-18.7-43.8H1974.3z"/>
<polygon fill="#3FA9F5" points="1952.3,59 1974.3,37.2 1974.3,93.1 1917.7,93.1 1940.7,70.4 "/>
<path fill="#3FA9F5" d="M1715.4-92.2l9-8.8v12c-2.2,1.4-3.5,2.4-3.5,2.4L1715.4-92.2z"/>
<path fill="#3FA9F5" d="M1697.8-53.7c9.3,1.3,19,5.2,26.6,8.9v56.7c-2.1-1.5-3.3-2.5-3.3-2.5s-22.8-22.3-34-32.4
	c-3.5-3.1-6.8-4.3-6.8-4.3s-3.2-1.8-7.5-2.5c-5.4-1-12-0.8-12-0.8s-3.2,0.1-4.4-1.1c-1.1-1.2,0.5-2.8,0.5-2.8l10.8-10.7
	C1667.8-45.2,1681.7-55.9,1697.8-53.7z"/>
<path fill="#3FA9F5" d="M1790.9-166.7l5.5,5.6c0,0-1.2,1.6-2.8,4.2H1781L1790.9-166.7z"/>
<path fill="#3FA9F5" d="M1892.2-159.6c0,0,0.8,1,2.1,2.7h-56.2c-3.7-7.7-7.5-17.5-8.6-26.8c-1.9-16,8.9-29.9,8.9-29.9l10.8-10.7
	c0,0,1.6-1.7,2.8-0.5c1.2,1.2,0.9,4.2,0.9,4.2s-0.2,6.7,0.7,12.1c0.7,4.3,2.5,7.5,2.5,7.5s1.1,3.4,4.2,6.9
	C1870.3-182.7,1892.2-159.6,1892.2-159.6z"/>
<polygon fill="#3FA9F5" points="1906.2,93.1 1917.7,93.1 1911.8,98.9 "/>
<path fill="#3FA9F5" d="M1981.2,30.4l-6.9,6.8V24c0.1-0.1,0.2-0.1,0.2-0.1L1981.2,30.4z"/>
<text transform="matrix(1 0 0 1 2005.822 -66.6277)" fill="#3FA9F5" font-family="'CenturyGothic-Bold'" font-size="60" letter-spacing="-2">PSICÓLOGOS</text>
<text transform="matrix(1 0 0 1 1999.822 50.0009)" fill="#FF931E" font-family="'Lato-Bold'" font-size="120" letter-spacing="24">PERÚ</text>
<polygon fill="#3FA9F5" points="1818.6,186.7 1785,186.7 1824.2,146.9 1864.6,186.6 1834.9,186.7 "/>
<path fill="#3FA9F5" d="M1750.1,242.6c0,0-1.4-6.9-4.5-15.8l31-31.5c4.4,0.9,11.6,2.9,17.3,6.5c3.1,2,12.7,9.4,12.7,13.8
	c0,1.4,0.1,51.1,0,102.2l-20.9-0.1c0,0-13.9-2.1-21-9.4c-8.1-8.3-10.5-19.5-10.5-19.5L1750.1,242.6z"/>
<path fill="#3FA9F5" d="M1846.6,215.6c0-4.4,8.7-11.9,11.8-13.9c5.1-3.3,11.1-5.3,15.2-6.3l31.8,31.3c-3.1,8.9-4.5,15.9-4.5,15.9
	l-4,46.2c0,0-2.5,11.2-10.6,19.5c-7,7.2-21.2,9.4-21.2,9.4l-17.9,0.1C1846.9,266.7,1846.6,217,1846.6,215.6z"/>
<path fill="#3FA9F5" d="M1806.5,430c0,0-0.4,9.1-9.1,14.6c-4.5,2.9-18.9,6.8-18.9,6.8l0,1.3l-129.7-127.6l57-57.9
	c1.4,9.1,5.9,31.2,17.4,43.5c19.3,20.7,51,26.8,51,26.8l32.4,0.7C1806.6,386.2,1806.5,430,1806.5,430z"/>
<path fill="#3FA9F5" d="M2002.4,322.2l-126.9,129c-1.7-0.4-14.5-3.8-18.7-6.5c-8.7-5.5-9.1-14.7-9.1-14.7s-0.2-43.9-0.5-92l29.3-0.7
	c0,0,32.1-6.2,51.4-26.9c11.8-12.7,16.1-35.7,17.4-44.3L2002.4,322.2z"/>
<polygon fill="#3FA9F5" points="1835.3,460.7 1866.3,460.6 1827.1,500.4 1786.7,460.7 1819,460.7 "/>
<path fill="#3FA9F5" d="M1772.4,186.7l12.6,0l-8.4,8.6c-2.5-0.5-4.1-0.7-4.1-0.7L1772.4,186.7z"/>
<path fill="#3FA9F5" d="M1732.9,201.8c5.8,7.4,9.9,17,12.7,25l-39.7,40.4c-0.4-2.6-0.5-4.1-0.5-4.1s-0.6-31.8-1.5-47
	c-0.3-4.7-1.9-7.8-1.9-7.8s-1-3.5-3.5-7c-3.2-4.5-8-8.9-8-8.9s-2.3-2.1-2.3-3.8c0-1.6,2.3-1.6,2.3-1.6l15.2,0
	C1705.6,186.9,1723,189,1732.9,201.8z"/>
<path fill="#3FA9F5" d="M1878.4,186.6l0,7.8c0,0-2,0.3-4.9,1l-9-8.8L1878.4,186.6z"/>
<path fill="#3FA9F5" d="M1945.8,262.7c0,0-0.1,1.2-0.4,3.4l-40-39.4c2.8-8.1,6.9-17.7,12.7-25.2c9.9-12.8,27.3-15,27.3-15l15.2,0
	c0,0,2.3,0,2.3,1.6c0,1.7-2.3,3.6-2.3,3.6s-4.8,4.6-8,9.1c-2.5,3.6-3.5,7.1-3.5,7.1s-1.6,3.2-1.9,7.9
	C1946.3,230.9,1945.8,262.7,1945.8,262.7z"/>
<polygon fill="#3FA9F5" points="1778.5,452.7 1786.7,460.7 1778.4,460.7 "/>
<path fill="#3FA9F5" d="M1875.9,460.6l-9.7,0l9.3-9.4c0.1,0,0.2,0,0.2,0L1875.9,460.6z"/>
<text transform="matrix(1 0 0 1 2018.8219 300.3204)" fill="#3FA9F5" font-family="'CenturyGothic-Bold'" font-size="60" letter-spacing="-2">PSICÓLOGOS</text>
<text transform="matrix(1 0 0 1 2012.822 416.9491)" fill="#FF931E" font-family="'Lato-Bold'" font-size="120" letter-spacing="24">PERÚ</text>
<rect id="_x3C_Slice_x3E_" x="1115.3" y="-116.9" fill="none" width="229" height="103"/>
<g>
	<polygon fill="#3FA9F5" points="1521,-201.3 1518.3,-198.5 1518.3,-204.9 1524.6,-204.9 1522.3,-202.5 	"/>
	<path fill="#3FA9F5" d="M1519.9-191.1c0,0-0.5-0.5-1.5-0.9v-5.1c0-0.3,1.1-0.7,1.8-0.9c0.4-0.1,1.7-0.3,2.1,0.1
		c0.1,0.1,4.1,4.2,8.2,8.4l-1.7,1.7c0,0-1.3,0.9-2.5,0.9c-1.3,0-2.4-0.8-2.4-0.8L1519.9-191.1z"/>
	<path fill="#3FA9F5" d="M1525.5-201.2c-0.4-0.4-0.3-1.6-0.2-2c0.2-0.7,0.5-1.7,0.7-1.7h5.1c0.5,1,0.9,1.6,0.9,1.6l3.4,4.1
		c0,0,0.7,1.1,0.7,2.4c0,1.2-1,2.5-1,2.5l-1.5,1.5C1529.6-197,1525.6-201,1525.5-201.2z"/>
	<path fill="#3FA9F5" d="M1539.5-180.3c0,0,0.7,0.8,0.4,1.9c-0.1,0.6-1,2.2-1,2.2l0.1,0.2h-20.7v-9.6c1,0.6,2.9,2.1,4.8,2.2
		c3.3,0.1,6.3-1.9,6.3-1.9l2.7-2.6C1536-183.9,1539.5-180.3,1539.5-180.3z"/>
	<path fill="#3FA9F5" d="M1547.3-204.9v20.8c-1,0.1-1.7,0.9-2.3,1c-1.2,0.3-2-0.5-2-0.5s-3.6-3.6-7.5-7.5l2.3-2.4c0,0,2.1-3.1,2-6.3
		c-0.1-2-1.6-4-2.2-5H1547.3z"/>
	<polygon fill="#3FA9F5" points="1544.6,-180.1 1547.3,-182.6 1547.3,-175.9 1540.4,-175.9 1543.1,-178.7 	"/>
	<path fill="#3FA9F5" d="M1517-197.5l0.9-1v1.4c0,0.2-0.4,0.3-0.4,0.3L1517-197.5z"/>
	<path fill="#3FA9F5" d="M1515.2-193.1c1.1,0.1,2.2,0.6,3.2,1v6.5c0-0.2-0.5-0.3-0.5-0.3s-2.7-2.6-4-3.7c-0.4-0.4-0.8-0.5-0.8-0.5
		s-0.4-0.2-0.9-0.3c-0.6-0.1-1.4-0.1-1.4-0.1s-0.4,0-0.5-0.1c-0.1-0.1,0.1-0.3,0.1-0.3l1.3-1.2
		C1511.7-192.1,1513.3-193.3,1515.2-193.1z"/>
	<path fill="#3FA9F5" d="M1525.8-206.1l0.6,0.6c0,0-0.1,0.1-0.3,0.5h-1.5L1525.8-206.1z"/>
	<path fill="#3FA9F5" d="M1537.5-205.3c0,0,0.1,0.4,0.2,0.4h-6.5c-0.4-1-0.9-2.1-1-3.1c-0.2-1.8,1-3.5,1-3.5l1.2-1.2
		c0,0,0.2-0.2,0.3-0.1c0.1,0.1,0.1,0.5,0.1,0.5s0,0.8,0.1,1.4c0.1,0.5,0.3,0.9,0.3,0.9s0.1,0.4,0.5,0.8
		C1534.9-207.9,1537.5-205.3,1537.5-205.3z"/>
	<polygon fill="#3FA9F5" points="1539.1,-176.2 1540.4,-176.2 1539.7,-175.6 	"/>
	<path fill="#3FA9F5" d="M1547.8-183.4l-0.7,0.8v-1.5c0,0,0,0,0,0L1547.8-183.4z"/>
	<text transform="matrix(1 0 0 1 1550.5366 -194.5846)" fill="#3FA9F5" font-family="'CenturyGothic-Bold'" font-size="6.9133">PSICÓLOGOS</text>
	
		<text transform="matrix(1 0 0 1 1549.8463 -181.1466)" fill="#3287C4" font-family="'Lato-Bold'" font-size="13.8266" letter-spacing="2">PERÚ</text>
</g>
<rect id="_x3C_Slice_x3E__1_" x="1508.3" y="-215.9" fill="none" width="90" height="44"/>
<polygon fill="#3FA9F5" points="31,32.3 23.3,39.8 23.3,22.1 41.4,22.1 34.7,28.7 "/>
<path fill="#3FA9F5" d="M27.9,60.1c0,0-1.6-1.3-4.6-2.6v-14c2-0.8,3.3-1.9,5.4-2.4c1.1-0.2,5-0.7,6,0.3c0.3,0.3,11.4,11.5,22.7,23
	l-4.7,4.6c0,0-3.6,2.6-6.8,2.5c-3.7-0.1-6.7-2.1-6.7-2.1L27.9,60.1z"/>
<path fill="#3FA9F5" d="M43.8,32.7c-1-1-0.7-4.6-0.4-5.7c0.4-1.9,1.3-3.8,2-4.8h14.1c1.3,3,2.5,4.6,2.5,4.6L71.3,38
	c0,0,1.9,3.1,1.9,6.7c0,3.2-2.7,6.8-2.7,6.8l-4,4C55.2,44.1,44.1,33,43.8,32.7z"/>
<path fill="#3FA9F5" d="M82.3,89.9c0,0,1.9,2.2,1.2,5.3c-0.4,1.7-2.8,5.7-2.8,5.7l0.3,0.3H23.3V75.5c3,1.7,8.3,5.7,13.7,6
	c9,0.4,17.5-5.3,17.5-5.3l7.5-7C72.6,80,82.3,89.9,82.3,89.9z"/>
<path fill="#3FA9F5" d="M103.3,22.1v57.2c-1,0.3-4.5,2.3-6.1,2.7c-3.2,0.7-5.5-1.3-5.5-1.3s-9.9-9.8-20.6-20.6l6.4-6.7
	c0,0,5.9-8.5,5.6-17.5c-0.2-5.5-4.3-11.9-5.9-13.9H103.3z"/>
<polygon fill="#3FA9F5" points="96,90.4 103.3,83.5 103.3,101.1 84.6,101.1 92.1,94 "/>
<path fill="#3FA9F5" d="M20.6,42.6l2.8-2.8v3.8c0,0.4-1.1,0.8-1.1,0.8L20.6,42.6z"/>
<path fill="#3FA9F5" d="M15,54.7c2.9,0.4,6.3,1.6,8.3,2.8v17.9c0-0.5-1-0.8-1-0.8s-7.2-7-10.7-10.2c-1.1-1-2.1-1.4-2.1-1.4
	s-1-0.6-2.4-0.8C5.5,62,3.4,62,3.4,62s-1,0-1.4-0.4c-0.4-0.4,0.2-0.9,0.2-0.9l3.4-3.4C5.6,57.4,9.9,54.1,15,54.7z"/>
<path fill="#3FA9F5" d="M44.5,19l1.7,1.8c0,0-0.4,0.3-0.9,1.3h-4L44.5,19z"/>
<path fill="#3FA9F5" d="M76.6,21.3c0,0,0.2,0.8,0.7,0.8H59.5c-1.2-2-2.4-5.5-2.7-8.5c-0.6-5.1,2.8-9.4,2.8-9.4L63,0.8
	c0,0,0.5-0.5,0.9-0.2C64.2,1.1,64.1,2,64.1,2s-0.1,2.1,0.2,3.8c0.2,1.4,0.8,2.4,0.8,2.4s0.4,1.1,1.3,2.2
	C69.6,14,76.6,21.3,76.6,21.3z"/>
<polygon fill="#3FA9F5" points="81,101.1 84.6,101.1 82.8,102.9 "/>
<path fill="#3FA9F5" d="M105.1,81.4l-1.8,2.1v-4.2c0,0-0.2,0-0.2,0L105.1,81.4z"/>
<g>
	<path fill="#3FA9F5" d="M114,37h2.8c1.5,0,2.6,0.1,3.2,0.4c0.7,0.3,1.2,0.7,1.6,1.3c0.4,0.6,0.6,1.4,0.6,2.2c0,1-0.2,1.7-0.7,2.4
		s-1.2,1.1-2,1.3c-0.5,0.1-1.4,0.2-2.7,0.2v5.8H114V37z M116.6,42.4h0.8c0.6,0,1.1,0,1.4-0.1c0.3-0.1,0.5-0.2,0.6-0.5
		c0.1-0.2,0.2-0.5,0.2-0.8c0-0.5-0.2-0.9-0.6-1.2c-0.3-0.2-0.8-0.3-1.6-0.3h-0.7V42.4z"/>
	<path fill="#3FA9F5" d="M131,38.9l-1.9,1.7c-0.7-0.9-1.4-1.4-2.1-1.4c-0.3,0-0.6,0.1-0.8,0.3c-0.2,0.2-0.3,0.4-0.3,0.6
		s0.1,0.4,0.2,0.6c0.2,0.3,0.8,0.9,1.9,1.8c1,0.8,1.6,1.3,1.8,1.6c0.5,0.5,0.9,1,1.1,1.5c0.2,0.5,0.3,1,0.3,1.6c0,1.1-0.4,2-1.2,2.8
		s-1.8,1.1-3,1.1c-1,0-1.8-0.2-2.5-0.7c-0.7-0.5-1.3-1.2-1.8-2.2l2.2-1.3c0.7,1.2,1.4,1.8,2.3,1.8c0.4,0,0.8-0.1,1.1-0.4
		c0.3-0.3,0.5-0.6,0.5-0.9c0-0.3-0.1-0.6-0.3-0.9c-0.2-0.3-0.7-0.8-1.5-1.4c-1.5-1.2-2.4-2.1-2.9-2.8c-0.4-0.7-0.6-1.3-0.6-2
		c0-0.9,0.4-1.8,1.1-2.4c0.7-0.7,1.6-1,2.7-1c0.7,0,1.3,0.2,1.9,0.5S130.3,38.1,131,38.9z"/>
	<path fill="#3FA9F5" d="M132.8,37h2.6v13.6h-2.6V37z"/>
	<path fill="#3FA9F5" d="M150,39.4l-1.8,1.7c-1.2-1.3-2.6-2-4.2-2c-1.3,0-2.4,0.4-3.3,1.3c-0.9,0.9-1.3,2-1.3,3.3
		c0,0.9,0.2,1.7,0.6,2.4c0.4,0.7,1,1.3,1.7,1.7c0.7,0.4,1.5,0.6,2.4,0.6c0.8,0,1.4-0.1,2.1-0.4c0.6-0.3,1.3-0.8,2.1-1.5l1.8,1.8
		c-1,1-2,1.7-2.9,2S145.1,51,144,51c-2.1,0-3.9-0.7-5.2-2c-1.3-1.3-2-3.1-2-5.2c0-1.4,0.3-2.6,0.9-3.6c0.6-1.1,1.5-1.9,2.6-2.5
		s2.4-1,3.7-1c1.1,0,2.2,0.2,3.2,0.7C148.3,37.9,149.2,38.6,150,39.4z"/>
	<path fill="#3FA9F5" d="M157.9,36.7c1.9,0,3.6,0.7,5,2.1c1.4,1.4,2.1,3.1,2.1,5.1c0,2-0.7,3.7-2.1,5c-1.4,1.4-3,2.1-5,2.1
		c-2,0-3.7-0.7-5.1-2.1c-1.4-1.4-2-3.1-2-5c0-1.3,0.3-2.5,0.9-3.6c0.6-1.1,1.5-2,2.6-2.6C155.4,37,156.6,36.7,157.9,36.7z
		 M157.9,39.2c-1.3,0-2.3,0.4-3.2,1.3s-1.3,2-1.3,3.3c0,1.5,0.5,2.7,1.6,3.6c0.8,0.7,1.8,1,2.9,1c1.2,0,2.3-0.4,3.1-1.3
		c0.9-0.9,1.3-2,1.3-3.3c0-1.3-0.4-2.4-1.3-3.3C160.2,39.7,159.1,39.2,157.9,39.2z M158.3,32.4h3l-3.4,3.6h-1.8L158.3,32.4z"/>
	<path fill="#3FA9F5" d="M166.6,37h2.6v11.2h3.8v2.5h-6.4V37z"/>
	<path fill="#3FA9F5" d="M180.6,36.7c1.9,0,3.6,0.7,5,2.1s2.1,3.1,2.1,5.1c0,2-0.7,3.7-2.1,5c-1.4,1.4-3,2.1-5,2.1
		c-2,0-3.7-0.7-5.1-2.1s-2-3.1-2-5c0-1.3,0.3-2.5,0.9-3.6c0.6-1.1,1.5-2,2.6-2.6C178.1,37,179.3,36.7,180.6,36.7z M180.5,39.2
		c-1.3,0-2.3,0.4-3.2,1.3s-1.3,2-1.3,3.3c0,1.5,0.5,2.7,1.6,3.6c0.8,0.7,1.8,1,2.9,1c1.2,0,2.3-0.4,3.1-1.3c0.9-0.9,1.3-2,1.3-3.3
		c0-1.3-0.4-2.4-1.3-3.3C182.9,39.7,181.8,39.2,180.5,39.2z"/>
	<path fill="#3FA9F5" d="M201.9,39.3l-1.8,1.8c-1.2-1.2-2.5-1.8-4-1.8c-1.3,0-2.5,0.4-3.4,1.3c-0.9,0.9-1.4,2-1.4,3.2
		c0,1.3,0.5,2.4,1.4,3.3s2.1,1.4,3.5,1.4c0.9,0,1.7-0.2,2.3-0.6s1.1-1,1.5-1.8H196v-2.4h6.9l0,0.6c0,1.2-0.3,2.3-0.9,3.4
		c-0.6,1.1-1.4,1.9-2.4,2.4c-1,0.6-2.1,0.8-3.5,0.8c-1.4,0-2.7-0.3-3.8-0.9s-2-1.5-2.6-2.6s-1-2.4-1-3.7c0-1.8,0.6-3.4,1.8-4.7
		c1.4-1.6,3.3-2.4,5.5-2.4c1.2,0,2.3,0.2,3.3,0.7C200.2,37.7,201,38.4,201.9,39.3z"/>
	<path fill="#3FA9F5" d="M210.8,36.7c1.9,0,3.6,0.7,5,2.1s2.1,3.1,2.1,5.1c0,2-0.7,3.7-2.1,5c-1.4,1.4-3,2.1-5,2.1
		c-2,0-3.7-0.7-5.1-2.1s-2-3.1-2-5c0-1.3,0.3-2.5,0.9-3.6c0.6-1.1,1.5-2,2.6-2.6C208.4,37,209.6,36.7,210.8,36.7z M210.8,39.2
		c-1.3,0-2.3,0.4-3.2,1.3s-1.3,2-1.3,3.3c0,1.5,0.5,2.7,1.6,3.6c0.8,0.7,1.8,1,2.9,1c1.2,0,2.3-0.4,3.1-1.3c0.9-0.9,1.3-2,1.3-3.3
		c0-1.3-0.4-2.4-1.3-3.3C213.1,39.7,212.1,39.2,210.8,39.2z"/>
	<path fill="#3FA9F5" d="M226.7,38.9l-1.9,1.7c-0.7-0.9-1.4-1.4-2.1-1.4c-0.3,0-0.6,0.1-0.8,0.3c-0.2,0.2-0.3,0.4-0.3,0.6
		s0.1,0.4,0.2,0.6c0.2,0.3,0.8,0.9,1.9,1.8c1,0.8,1.6,1.3,1.8,1.6c0.5,0.5,0.9,1,1.1,1.5c0.2,0.5,0.3,1,0.3,1.6c0,1.1-0.4,2-1.2,2.8
		c-0.8,0.7-1.8,1.1-3,1.1c-1,0-1.8-0.2-2.5-0.7c-0.7-0.5-1.3-1.2-1.8-2.2l2.2-1.3c0.7,1.2,1.4,1.8,2.3,1.8c0.4,0,0.8-0.1,1.1-0.4
		c0.3-0.3,0.5-0.6,0.5-0.9c0-0.3-0.1-0.6-0.3-0.9c-0.2-0.3-0.7-0.8-1.5-1.4c-1.5-1.2-2.4-2.1-2.9-2.8c-0.4-0.7-0.7-1.3-0.7-2
		c0-0.9,0.4-1.8,1.1-2.4c0.7-0.7,1.6-1,2.7-1c0.7,0,1.3,0.2,1.9,0.5S226,38.1,226.7,38.9z"/>
</g>
<g>
	<path fill="#3287C4" d="M122.6,60.1c1.8,0,3.4,0.2,4.8,0.6c1.3,0.4,2.4,1,3.3,1.8c0.9,0.8,1.5,1.7,1.9,2.8c0.4,1.1,0.6,2.3,0.6,3.5
		c0,1.3-0.2,2.5-0.7,3.7s-1.1,2.1-2,2.9c-0.9,0.8-2,1.4-3.3,1.9c-1.3,0.4-2.9,0.7-4.7,0.7h-3.8v9.7h-5.1V60.1H122.6z M122.6,73.9
		c0.9,0,1.8-0.1,2.4-0.4c0.7-0.2,1.3-0.6,1.7-1c0.5-0.4,0.8-1,1-1.6c0.2-0.6,0.3-1.3,0.3-2.1c0-0.7-0.1-1.4-0.3-2
		c-0.2-0.6-0.6-1.1-1-1.5c-0.5-0.4-1-0.7-1.7-1c-0.7-0.2-1.5-0.3-2.5-0.3h-3.8v9.8H122.6z"/>
	<path fill="#3287C4" d="M149.8,64.2v7.6h9.6v3.9h-9.6v7.8H162v4.1h-17.3V60.1H162v4.1H149.8z"/>
	<path fill="#3287C4" d="M195.5,87.6h-4.6c-0.9,0-1.5-0.3-1.9-1l-5.8-8.8c-0.2-0.3-0.5-0.6-0.7-0.7c-0.3-0.1-0.6-0.2-1.1-0.2h-2.2
		v10.7h-5.1V60.1h8.4c1.9,0,3.5,0.2,4.8,0.6c1.3,0.4,2.4,0.9,3.3,1.6c0.9,0.7,1.5,1.5,1.9,2.5c0.4,1,0.6,2,0.6,3.2
		c0,0.9-0.1,1.8-0.4,2.6c-0.3,0.8-0.7,1.6-1.2,2.2c-0.5,0.7-1.1,1.3-1.9,1.8c-0.8,0.5-1.6,0.9-2.6,1.2c0.3,0.2,0.6,0.4,0.9,0.7
		c0.3,0.3,0.5,0.6,0.8,0.9L195.5,87.6z M182.4,73.2c1,0,1.8-0.1,2.5-0.4c0.7-0.2,1.3-0.6,1.8-1s0.8-0.9,1-1.5s0.3-1.2,0.3-1.9
		c0-1.4-0.5-2.5-1.4-3.2c-0.9-0.7-2.3-1.1-4.2-1.1h-3.3v9.1H182.4z"/>
	<path fill="#3287C4" d="M216.9,83.4c1,0,1.9-0.2,2.6-0.5c0.8-0.3,1.4-0.8,2-1.4s0.9-1.3,1.2-2.2c0.3-0.8,0.4-1.8,0.4-2.8V60.1h5.1
		v16.4c0,1.6-0.3,3.1-0.8,4.5c-0.5,1.4-1.3,2.6-2.3,3.6c-1,1-2.2,1.8-3.6,2.4c-1.4,0.6-3,0.8-4.7,0.8c-1.8,0-3.4-0.3-4.8-0.8
		c-1.4-0.6-2.6-1.3-3.6-2.4c-1-1-1.7-2.2-2.3-3.6c-0.5-1.4-0.8-2.9-0.8-4.5V60.1h5.1v16.4c0,1,0.1,2,0.4,2.8
		c0.3,0.8,0.7,1.6,1.2,2.2c0.5,0.6,1.2,1.1,2,1.4C215.1,83.3,215.9,83.4,216.9,83.4z M224.9,52.2l-6.1,5.4c-0.3,0.2-0.5,0.4-0.7,0.4
		c-0.2,0-0.5,0.1-0.9,0.1h-3.4l4-5.1c0.1-0.2,0.3-0.3,0.4-0.4c0.1-0.1,0.3-0.2,0.4-0.2c0.2-0.1,0.3-0.1,0.5-0.1c0.2,0,0.4,0,0.7,0
		H224.9z"/>
</g>
<rect id="_x3C_Slice_x3E__2_" x="0.3" y="0.1" fill="none" width="229" height="103"/>
</svg>
